<svg version="1.0" xmlns="http://www.w3.org/2000/svg"
 width="512.000000pt" height="512.000000pt" viewBox="0 0 512.000000 512.000000"
 preserveAspectRatio="xMidYMid meet">

<g transform="translate(0.000000,512.000000) scale(0.100000,-0.100000)"
fill="#31a05f" stroke="none">
<path d="M2320 5049 c-598 -66 -1107 -306 -1520 -719 -148 -147 -231 -249
-340 -416 -196 -302 -321 -636 -377 -1009 -24 -167 -24 -523 0 -690 82 -552
319 -1026 707 -1415 282 -284 589 -476 965 -607 111 -38 329 -90 460 -110 167
-24 524 -24 690 0 443 66 847 239 1204 515 111 85 328 302 413 413 278 359
449 760 515 1204 24 167 24 523 0 690 -66 445 -237 845 -515 1204 -85 111
-302 328 -413 413 -355 275 -765 451 -1199 513 -135 20 -468 28 -590 14z m990
-1494 l0 -285 -482 -2 -483 -3 -12 -105 c-6 -58 -12 -121 -12 -141 l-1 -37
213 -5 c185 -4 224 -8 309 -30 369 -97 602 -352 641 -699 20 -179 -20 -376
-108 -533 -47 -85 -167 -212 -257 -272 -178 -118 -425 -175 -663 -153 -466 45
-783 346 -821 783 l-7 77 322 0 321 0 0 -23 c0 -93 79 -207 172 -247 67 -29
180 -25 244 8 139 71 193 256 120 406 -33 68 -78 108 -151 135 -53 20 -73 21
-475 21 l-419 0 -35 43 -34 42 9 80 c14 114 129 1200 129 1214 0 8 194 11 740
11 l740 0 0 -285z"/>
</g>
</svg>
