<svg version="1.0" xmlns="http://www.w3.org/2000/svg"
 width="512.000000pt" height="512.000000pt" viewBox="0 0 512.000000 512.000000"
 preserveAspectRatio="xMidYMid meet">

<g transform="translate(0.000000,512.000000) scale(0.100000,-0.100000)"
fill="#31a05f" stroke="none">
<path d="M2320 5049 c-598 -66 -1107 -306 -1520 -719 -148 -147 -231 -249
-340 -416 -196 -302 -321 -636 -377 -1009 -24 -167 -24 -523 0 -690 82 -552
319 -1026 707 -1415 74 -75 173 -165 220 -201 369 -285 774 -456 1240 -521
141 -19 506 -16 655 6 442 65 847 238 1204 514 111 85 328 302 413 413 278
359 449 760 515 1204 24 167 24 523 0 690 -66 445 -237 845 -515 1204 -85 111
-302 328 -413 413 -355 275 -765 451 -1199 513 -135 20 -468 28 -590 14z m660
-1252 c0 -12 -65 -171 -245 -602 -18 -44 -56 -136 -85 -205 -29 -69 -72 -172
-96 -230 -24 -58 -74 -179 -112 -270 l-68 -165 194 -3 c107 -1 197 0 200 3 3
3 38 126 77 273 l71 267 227 3 227 2 0 -275 0 -275 110 0 110 0 0 -280 0 -280
-110 0 -110 0 -2 -222 -3 -223 -318 0 -318 0 1 223 1 222 -601 0 -600 0 0 64
c0 60 12 93 240 642 132 319 249 599 260 624 11 25 76 182 145 350 69 168 132
320 140 338 l15 32 325 0 c264 0 325 -3 325 -13z"/>
</g>
</svg>
