<svg version="1.0" xmlns="http://www.w3.org/2000/svg"
 width="512.000000pt" height="512.000000pt" viewBox="0 0 512.000000 512.000000"
 preserveAspectRatio="xMidYMid meet">

<g transform="translate(0.000000,512.000000) scale(0.100000,-0.100000)"
fill="#31a05f" stroke="none">
<path d="M2375 5054 c-16 -2 -73 -9 -125 -15 -435 -49 -869 -231 -1240 -518
-110 -85 -327 -302 -412 -412 -278 -358 -445 -750 -515 -1206 -23 -150 -23
-536 0 -686 112 -727 493 -1334 1087 -1732 330 -221 669 -348 1085 -407 135
-19 503 -16 650 5 373 55 731 192 1035 395 617 413 996 1025 1102 1777 17 117
17 493 0 610 -91 647 -391 1200 -867 1602 -357 302 -802 502 -1265 568 -108
16 -467 29 -535 19z m1025 -1277 l0 -63 -246 -393 c-135 -216 -242 -397 -237
-401 4 -4 37 -17 72 -29 145 -47 314 -184 390 -314 170 -290 138 -703 -74
-960 -116 -140 -293 -252 -473 -297 -446 -112 -877 43 -1082 390 -62 104 -120
307 -120 421 0 18 11 19 319 19 l318 0 7 -42 c24 -147 134 -248 272 -248 166
0 279 109 292 281 9 132 -51 241 -160 290 -51 23 -65 24 -305 27 l-253 4 0 66
0 67 204 335 204 335 -419 3 -419 2 0 278 c0 153 3 282 7 285 3 4 388 7 855 7
l848 0 0 -63z"/>
</g>
</svg>
