<svg version="1.0" xmlns="http://www.w3.org/2000/svg"
 width="512.000000pt" height="512.000000pt" viewBox="0 0 512.000000 512.000000"
 preserveAspectRatio="xMidYMid meet">

<g transform="translate(0.000000,512.000000) scale(0.100000,-0.100000)"
fill="#31a05f" stroke="none">
<path d="M2375 5054 c-16 -2 -73 -9 -125 -15 -435 -49 -869 -231 -1240 -518
-110 -85 -327 -302 -412 -412 -277 -357 -445 -752 -515 -1206 -23 -150 -23
-536 0 -686 112 -727 493 -1334 1087 -1732 330 -221 669 -348 1085 -407 135
-19 503 -16 650 5 373 55 731 192 1035 395 617 413 996 1025 1102 1777 17 119
16 493 -1 615 -88 635 -394 1199 -866 1597 -357 302 -802 502 -1265 568 -108
16 -467 29 -535 19z m349 -1229 c365 -55 628 -281 700 -602 20 -89 21 -274 2
-363 -49 -229 -195 -469 -514 -848 -62 -73 -112 -134 -112 -137 0 -3 155 -5
345 -5 l345 0 0 -295 0 -295 -930 0 -930 0 0 76 0 75 188 222 c672 793 894
1090 941 1262 16 58 13 160 -5 203 -43 104 -150 152 -266 118 -92 -27 -145
-101 -155 -217 l-6 -69 -324 0 c-292 0 -324 2 -330 17 -3 9 -1 68 6 132 30
293 158 499 391 629 168 94 422 132 654 97z"/>
</g>
</svg>
