<svg version="1.0" xmlns="http://www.w3.org/2000/svg"
 width="512.000000pt" height="512.000000pt" viewBox="0 0 512.000000 512.000000"
 preserveAspectRatio="xMidYMid meet">

<g transform="translate(0.000000,512.000000) scale(0.100000,-0.100000)"
fill="#31a05f" stroke="none">
<path d="M2320 5049 c-598 -66 -1107 -306 -1520 -719 -148 -147 -231 -249
-340 -416 -196 -302 -321 -636 -377 -1009 -24 -167 -24 -523 0 -690 67 -449
235 -843 515 -1204 85 -110 302 -327 412 -412 368 -285 774 -456 1240 -521
141 -19 506 -16 655 6 442 65 847 238 1204 514 111 85 328 302 413 413 279
360 448 755 515 1205 24 165 24 522 0 689 -66 445 -237 845 -515 1204 -85 111
-302 328 -413 413 -355 275 -765 451 -1199 513 -135 20 -468 28 -590 14z m760
-2489 l0 -1250 -335 0 -335 0 0 965 0 965 -185 0 -185 0 0 285 0 285 520 0
520 0 0 -1250z"/>
</g>
</svg>
